<mxfile host="app.diagrams.net" modified="2024-07-02T10:51:51.842Z" agent="Mozilla/5.0 (Windows NT 10.0; Win64; x64) AppleWebKit/537.36 (KHTML, like Gecko) Chrome/125.0.0.0 Safari/537.36" etag="ybs8I2kWMLkHX8bRuEP7" version="24.6.4" type="github">
  <diagram name="Page-1" id="2YBvvXClWsGukQMizWep">
    <mxGraphModel dx="1434" dy="780" grid="1" gridSize="10" guides="1" tooltips="1" connect="1" arrows="1" fold="1" page="1" pageScale="1" pageWidth="850" pageHeight="1100" math="0" shadow="0">
      <root>
        <mxCell id="0" />
        <mxCell id="1" parent="0" />
        <mxCell id="HgkohzaY-IMT7vrD_noD-5" value="" style="rounded=1;whiteSpace=wrap;html=1;fillColor=#fff2cc;strokeColor=#d6b656;" vertex="1" parent="1">
          <mxGeometry x="40" y="240" width="760" height="270" as="geometry" />
        </mxCell>
        <mxCell id="HgkohzaY-IMT7vrD_noD-4" value="&lt;span style=&quot;font-size: 16px;&quot;&gt;Client&lt;/span&gt;" style="rounded=0;whiteSpace=wrap;html=1;" vertex="1" parent="1">
          <mxGeometry x="70" y="315" width="70" height="120" as="geometry" />
        </mxCell>
        <mxCell id="HgkohzaY-IMT7vrD_noD-6" value="User Login" style="rounded=0;whiteSpace=wrap;html=1;" vertex="1" parent="1">
          <mxGeometry x="345" y="255" width="150" height="25" as="geometry" />
        </mxCell>
        <mxCell id="HgkohzaY-IMT7vrD_noD-7" value="&lt;span style=&quot;font-size: 16px;&quot;&gt;Server&lt;/span&gt;" style="rounded=0;whiteSpace=wrap;html=1;" vertex="1" parent="1">
          <mxGeometry x="385" y="315" width="70" height="120" as="geometry" />
        </mxCell>
        <mxCell id="HgkohzaY-IMT7vrD_noD-8" value="&lt;span style=&quot;font-size: 16px;&quot;&gt;Database&lt;/span&gt;" style="rounded=0;whiteSpace=wrap;html=1;" vertex="1" parent="1">
          <mxGeometry x="690" y="315" width="80" height="120" as="geometry" />
        </mxCell>
        <mxCell id="HgkohzaY-IMT7vrD_noD-9" value="" style="rounded=0;whiteSpace=wrap;html=1;" vertex="1" parent="1">
          <mxGeometry x="260" y="312.5" width="10" height="125" as="geometry" />
        </mxCell>
        <mxCell id="HgkohzaY-IMT7vrD_noD-10" value="" style="rounded=0;whiteSpace=wrap;html=1;" vertex="1" parent="1">
          <mxGeometry x="570" y="312.5" width="10" height="125" as="geometry" />
        </mxCell>
      </root>
    </mxGraphModel>
  </diagram>
</mxfile>
